<svg width="1024" height="1024" viewBox="0 0 1024 1024" fill="none" xmlns="http://www.w3.org/2000/svg">
<circle cx="512.5" cy="512.5" r="170.5" fill="black"/>
<path fill-rule="evenodd" clip-rule="evenodd" d="M672.05 733.867C627.11 766.329 571.904 785.46 512.23 785.46C361.329 785.46 239 663.131 239 512.23C239 361.329 361.329 239 512.23 239C663.131 239 785.46 361.329 785.46 512.23C785.46 541.803 780.761 570.279 772.07 596.952C783.997 600.623 794.863 606.714 804.094 614.653C815.343 582.598 821.46 548.128 821.46 512.23C821.46 341.447 683.013 203 512.23 203C341.447 203 203 341.447 203 512.23C203 683.013 341.447 821.46 512.23 821.46C582.223 821.46 646.785 798.205 698.611 759.001C688.128 752.526 679.079 743.953 672.05 733.867Z" fill="black"/>
<circle cx="745.661" cy="682.661" r="77.6615" stroke="black" stroke-width="24"/>
</svg>
