<svg width="16" height="16" viewBox="0 0 16 16" fill="none" xmlns="http://www.w3.org/2000/svg">
<circle cx="8.00781" cy="8.00781" r="2.66406" fill="black"/>
<path fill-rule="evenodd" clip-rule="evenodd" d="M10.5008 11.4667C9.7986 11.9739 8.936 12.2728 8.00359 12.2728C5.64577 12.2728 3.73438 10.3614 3.73438 8.00359C3.73438 5.64577 5.64577 3.73438 8.00359 3.73438C10.3614 3.73438 12.2728 5.64577 12.2728 8.00359C12.2728 8.46568 12.1994 8.91062 12.0636 9.32738C12.2499 9.38473 12.4197 9.47992 12.564 9.60396C12.7397 9.1031 12.8353 8.56451 12.8353 8.00359C12.8353 5.33511 10.6721 3.17188 8.00359 3.17188C5.33511 3.17188 3.17188 5.33511 3.17188 8.00359C3.17188 10.6721 5.33511 12.8353 8.00359 12.8353C9.09724 12.8353 10.106 12.472 10.9158 11.8594C10.752 11.7582 10.6106 11.6243 10.5008 11.4667Z" fill="black"/>
<circle cx="11.651" cy="10.6666" r="1.21346" stroke="black" stroke-width="0.375"/>
</svg>
