<?xml version="1.0" standalone="no"?>
<!DOCTYPE svg PUBLIC "-//W3C//DTD SVG 20010904//EN"
 "http://www.w3.org/TR/2001/REC-SVG-20010904/DTD/svg10.dtd">
<svg version="1.0" xmlns="http://www.w3.org/2000/svg"
 width="512.000000pt" height="512.000000pt" viewBox="0 0 512.000000 512.000000"
 preserveAspectRatio="xMidYMid meet">
<metadata>
Created by potrace 1.11, written by Peter Selinger 2001-2013
</metadata>
<g transform="translate(0.000000,512.000000) scale(0.100000,-0.100000)"
fill="#000000" stroke="none">
<path d="M0 2560 l0 -2560 2560 0 2560 0 0 2560 0 2560 -2560 0 -2560 0 0
-2560z m2943 1601 c280 -56 545 -189 764 -381 104 -91 127 -135 121 -225 -7
-111 -79 -183 -192 -193 -70 -6 -104 11 -211 102 -152 131 -312 217 -490 264
-465 123 -966 -48 -1250 -426 -161 -214 -233 -417 -242 -682 -8 -240 25 -391
134 -600 284 -549 946 -785 1521 -542 88 37 212 109 216 125 28 103 40 130 86
180 65 72 130 101 225 101 116 0 217 -62 273 -168 23 -44 27 -63 27 -136 0
-73 -4 -92 -27 -136 -51 -97 -147 -161 -253 -168 -47 -4 -68 -12 -133 -55
-166 -109 -372 -192 -575 -233 -162 -33 -452 -33 -614 0 -640 129 -1135 614
-1273 1248 -108 496 31 1027 369 1408 233 264 564 453 899 515 158 30 153 29
342 26 130 -2 203 -8 283 -24z m-138 -937 c229 -60 422 -257 481 -494 21 -83
21 -224 0 -316 -72 -307 -374 -531 -690 -511 -244 15 -459 156 -565 371 -55
110 -74 204 -68 331 8 176 72 322 197 445 102 100 234 169 370 190 70 11 198
4 275 -16z"/>
<path d="M2539 2760 c-112 -59 -148 -187 -83 -297 69 -118 247 -130 337 -24
83 99 51 258 -62 318 -56 29 -140 31 -192 3z"/>
</g>
</svg>
